ffmpeg started on 2016-11-25 at 20:53:30
Report written to "Output/NVENCh264/results/ffmpeg/sintelbd4500k.log"
Command line:
Tools/ffmpeg/ffmpeg -benchmark -y -i Input/y4m/sintel.y4m -c:v h264_nvenc -preset bd -b:v 4500k -an Output/NVENCh264/encoded/sintelbd4500k.mkv
ffmpeg version N-82227-gdb23fde Copyright (c) 2000-2016 the FFmpeg developers
  built with gcc 5.4.0 (Ubuntu 5.4.0-6ubuntu1~16.04.2) 20160609
  configuration: --prefix=/home/jaroslav/ffmpeg_build --pkg-config-flags=--static --extra-cflags=-I/home/jaroslav/ffmpeg_build/include --extra-ldflags=-L/home/jaroslav/ffmpeg_build/lib --bindir=/home/jaroslav/bin --enable-gpl --enable-libass --enable-libfdk-aac --enable-libfreetype --enable-libmp3lame --enable-libopus --enable-libtheora --enable-libvorbis --enable-libvpx --enable-libx264 --enable-libx265 --enable-nvenc --enable-libmfx --enable-libxvid --enable-libgsm --enable-libopencore-amrnb --enable-version3 --enable-nonfree
  libavutil      55. 35.100 / 55. 35.100
  libavcodec     57. 66.101 / 57. 66.101
  libavformat    57. 57.100 / 57. 57.100
  libavdevice    57.  2.100 / 57.  2.100
  libavfilter     6. 66.100 /  6. 66.100
  libswscale      4.  3.100 /  4.  3.100
  libswresample   2.  4.100 /  2.  4.100
  libpostproc    54.  2.100 / 54.  2.100
Input #0, yuv4mpegpipe, from 'Input/y4m/sintel.y4m':
  Duration: 00:00:20.83, start: 0.000000, bitrate: 2057307 kb/s
    Stream #0:0: Video: rawvideo (I420 / 0x30323449), yuv420p(progressive), 4096x1744, SAR 1:1 DAR 256:109, 24 fps, 24 tbr, 24 tbn, 24 tbc
Output #0, matroska, to 'Output/NVENCh264/encoded/sintelbd4500k.mkv':
  Metadata:
    encoder         : Lavf57.57.100
    Stream #0:0: Video: h264 (h264_nvenc) (Main) (H264 / 0x34363248), yuv420p, 4096x1744 [SAR 1:1 DAR 256:109], q=-1--1, 4500 kb/s, 24 fps, 1k tbn, 24 tbc
    Metadata:
      encoder         : Lavc57.66.101 h264_nvenc
    Side data:
      cpb: bitrate max/min/avg: 0/0/4500000 buffer size: 9000000 vbv_delay: -1
Stream mapping:
  Stream #0:0 -> #0:0 (rawvideo (native) -> h264 (h264_nvenc))
Press [q] to stop, [?] for help
frame=   18 fps=0.0 q=0.0 size=       0kB time=00:00:00.00 bitrate=N/A speed=   0x    frame=   38 fps= 38 q=38.0 size=       1kB time=00:00:00.29 bitrate=  20.4kbits/s speed=0.291x    frame=   59 fps= 39 q=41.0 size=       1kB time=00:00:01.16 bitrate=   5.1kbits/s speed=0.772x    frame=   80 fps= 40 q=40.0 size=       1kB time=00:00:02.04 bitrate=   2.9kbits/s speed=1.01x    frame=  101 fps= 40 q=42.0 size=       1kB time=00:00:02.91 bitrate=   2.0kbits/s speed=1.15x    frame=  122 fps= 40 q=41.0 size=       1kB time=00:00:03.79 bitrate=   1.6kbits/s speed=1.25x    frame=  143 fps= 40 q=39.0 size=       1kB time=00:00:04.66 bitrate=   1.3kbits/s speed=1.31x    frame=  163 fps= 40 q=41.0 size=    2625kB time=00:00:05.50 bitrate=3908.5kbits/s speed=1.36x    frame=  167 fps= 22 q=41.0 size=    2625kB time=00:00:05.66 bitrate=3793.3kbits/s speed=0.742x    frame=  168 fps= 15 q=41.0 size=    2625kB time=00:00:05.70 bitrate=3766.1kbits/s speed=0.525x    frame=  169 fps= 14 q=41.0 size=    2625kB time=00:00:05.75 bitrate=3738.6kbits/s speed=0.486x    frame=  190 fps= 15 q=41.0 size=    2625kB time=00:00:06.62 bitrate=3244.9kbits/s speed=0.537x    frame=  211 fps= 16 q=40.0 size=    2625kB time=00:00:07.50 bitrate=2866.4kbits/s speed=0.583x    frame=  232 fps= 17 q=41.0 size=    2625kB time=00:00:08.37 bitrate=2566.9kbits/s speed=0.627x    frame=  253 fps= 18 q=40.0 size=    2625kB time=00:00:09.25 bitrate=2324.1kbits/s speed=0.666x    frame=  274 fps= 19 q=40.0 size=    5038kB time=00:00:10.12 bitrate=4075.6kbits/s speed=0.703x    frame=  295 fps= 20 q=38.0 size=    5038kB time=00:00:11.00 bitrate=3751.4kbits/s speed=0.738x    frame=  316 fps= 20 q=39.0 size=    5461kB time=00:00:11.87 bitrate=3766.7kbits/s speed=0.77x    frame=  337 fps= 21 q=37.0 size=    5461kB time=00:00:12.75 bitrate=3508.2kbits/s speed= 0.8x    frame=  358 fps= 22 q=36.0 size=    5461kB time=00:00:13.62 bitrate=3282.9kbits/s speed=0.829x    frame=  379 fps= 22 q=35.0 size=    5461kB time=00:00:14.50 bitrate=3084.8kbits/s speed=0.856x    frame=  400 fps= 23 q=35.0 size=    5461kB time=00:00:15.37 bitrate=2909.3kbits/s speed=0.881x    frame=  421 fps= 23 q=33.0 size=    7398kB time=00:00:16.25 bitrate=3729.3kbits/s speed=0.904x    frame=  442 fps= 24 q=35.0 size=    7398kB time=00:00:17.12 bitrate=3538.8kbits/s speed=0.927x    frame=  459 fps= 24 q=36.0 size=    8077kB time=00:00:17.83 bitrate=3710.2kbits/s speed=0.939x    frame=  476 fps= 24 q=35.0 size=    8077kB time=00:00:18.54 bitrate=3568.3kbits/s speed=0.949x    frame=  493 fps= 25 q=35.0 size=    8077kB time=00:00:19.25 bitrate=3437.1kbits/s speed=0.961x    frame=  500 fps= 25 q=36.0 Lsize=    9765kB time=00:00:20.79 bitrate=3847.1kbits/s speed=1.02x    
video:9760kB audio:0kB subtitle:0kB other streams:0kB global headers:0kB muxing overhead: 0.048288%
bench: utime=0.948s
bench: maxrss=1207004kB
